<svg xmlns="http://www.w3.org/2000/svg" viewBox="0 0 470 470"><path d="M462.5 22.5H7.5A7.5 7.5 0 0 0 0 30v410a7.5 7.5 0 0 0 7.5 7.5h455a7.5 7.5 0 0 0 7.5-7.5v-80c0-4.142-3.357-7.5-7.5-7.5s-7.5 3.358-7.5 7.5v72.5H15v-335h440V330c0 4.142 3.357 7.5 7.5 7.5s7.5-3.358 7.5-7.5V30a7.5 7.5 0 0 0-7.5-7.5zM15 37.5h277.5v45H15v-45zm292.5 45v-45H455v45H307.5z"/><path d="M381.5 52c-4.411 0-8 3.589-8 8s3.589 8 8 8 8-3.589 8-8-3.589-8-8-8zm-41 0c-4.411 0-8 3.589-8 8s3.589 8 8 8 8-3.589 8-8-3.589-8-8-8zm82 0c-4.411 0-8 3.589-8 8s3.589 8 8 8 8-3.589 8-8-3.589-8-8-8zm-271.149 95.764l60.392 60.392a7.5 7.5 0 0 0 10.606 0 7.5 7.5 0 0 0 0-10.606l-65.677-65.677a7.5 7.5 0 0 0-10.588-.018l-44.268 43.969a7.5 7.5 0 0 0-.018 10.625l29.009 29.009 36.819 36.819c1.464 1.464 3.384 2.197 5.303 2.197s3.839-.732 5.303-2.197a7.5 7.5 0 0 0 0-10.606l-2.497-2.497 17.163-17.163a7.5 7.5 0 0 0 0-10.606 7.5 7.5 0 0 0-10.606 0l-17.163 17.163-18.407-18.407 17.163-17.163a7.5 7.5 0 0 0 0-10.606 7.5 7.5 0 0 0-10.606 0l-17.163 17.163-18.389-18.389 33.624-33.402zM255.499 340.15l57.978 57.978a7.5 7.5 0 0 0 10.608 0l44.118-44.119a7.5 7.5 0 0 0 0-10.606l-65.752-65.752a7.5 7.5 0 0 0-10.607 10.606l60.449 60.449-33.512 33.512-18.382-18.382 17.163-17.164a7.5 7.5 0 0 0-10.607-10.606l-17.163 17.163-18.382-18.382 17.164-17.163a7.5 7.5 0 0 0-10.607-10.606l-17.163 17.163-2.472-2.472a7.5 7.5 0 0 0-10.607 10.606l7.774 7.775zM107.66 399.842c.992 0 1.994-.197 2.943-.603l65.622-28.023.133-.057c.064-.027.125-.062.188-.091.142-.065.284-.13.422-.205.082-.044.161-.095.241-.143.126-.074.253-.146.376-.229.104-.07.202-.148.303-.222.093-.07.189-.135.279-.209a7.34 7.34 0 0 0 .548-.496l162.059-162.058 19.082-19.082c6.439-6.44 9.986-15.014 9.986-24.141.001-9.127-3.546-17.701-9.986-24.141-6.44-6.44-15.014-9.987-24.141-9.987-9.128 0-17.701 3.547-24.142 9.987l-19.075 19.076-162.064 162.064a7.327 7.327 0 0 0-.495.548c-.076.093-.143.191-.214.286-.073.098-.149.193-.217.295-.084.126-.159.256-.235.386-.045.077-.094.152-.136.231a7.121 7.121 0 0 0-.209.431c-.028.061-.061.119-.088.181l-.043.1-28.037 65.655a7.5 7.5 0 0 0 6.9 10.447zm190.136-224.706l27.068 27.068-151.452 151.452-27.068-27.068 151.452-151.452zm24.385-24.385c3.606-3.607 8.413-5.594 13.534-5.594 5.12 0 9.927 1.986 13.534 5.594 3.606 3.606 5.593 8.413 5.593 13.533 0 5.121-1.986 9.927-5.594 13.535l-13.777 13.777-27.068-27.068 13.778-13.777zM138.278 339.735l21.987 21.987-38.374 16.387 16.387-38.374z"/></svg>