<svg xmlns="http://www.w3.org/2000/svg" viewBox="0 0 58 58" width="512" height="512"><g fill="#FFF"><path d="M50.466 45.495l6.483-3.241-17.637-6.498 6.498 17.638 3.242-6.484 6.797 6.797a1.001 1.001 0 0 0 1.415-1.414l-6.798-6.798zm-7.778-6.364l9.232 3.402-3.887 1.943-1.943 3.888-3.402-9.233zM21.569 17.569C21.569 14.498 19.071 12 16 12s-5.569 2.498-5.569 5.569c0 3.07 2.498 5.568 5.569 5.568s5.569-2.497 5.569-5.568zm-9.138 0C12.431 15.602 14.032 14 16 14s3.569 1.602 3.569 3.569-1.601 3.569-3.569 3.569-3.569-1.601-3.569-3.569zm38.893 13.168a1 1 0 0 0 1.351-1.475l-12-11a.97.97 0 0 0-.72-.262.998.998 0 0 0-.694.325l-9.794 10.727-4.743-4.743a1.004 1.004 0 0 0-1.368-.044L6.339 39.249A1.002 1.002 0 0 0 7 41a.998.998 0 0 0 .661-.249l16.313-14.362 7.319 7.318a.999.999 0 1 0 1.414-1.414l-1.825-1.825 9.18-10.054 11.262 10.323z"/><path d="M57 4H1a1 1 0 0 0-1 1v44a1 1 0 0 0 1 1h37a1 1 0 1 0 0-2H2V6h54v31a1 1 0 1 0 2 0V5a1 1 0 0 0-1-1z"/></g></svg>