<svg xmlns="http://www.w3.org/2000/svg" viewBox="0 0 60 60" width="512" height="512"><g fill="#FFF"><path d="M2 2h39v7h2V1c0-.6-.4-1-1-1H1C.4 0 0 .4 0 1v58c0 .6.4 1 1 1h32v-2H2V2z"/><path d="M43.7 21.3l-2.8-6.6c-.1-.4-.5-.6-.9-.6s-.7.2-.9.6l-2.8 6.6c-.2.2-.3.4-.3.7v37c0 .6.4 1 1 1h6c.6 0 1-.4 1-1V22c0-.3-.1-.6-.3-.7zM38 23h4v29h-4V23zm2-5.5l1.5 3.5h-3l1.5-3.5zM42 58h-4v-4h4v4zm17-20H48c-.6 0-1 .4-1 1v20c0 .6.4 1 1 1h11c.6 0 1-.4 1-1V39c0-.6-.4-1-1-1zm-1 2v5h-9v-5h9zm-9 18V47h9v11h-9zM27 11c0-3.3-2.7-6-6-6s-6 2.7-6 6 2.7 6 6 6 6-2.7 6-6zm-10 0c0-2.2 1.8-4 4-4s4 1.8 4 4-1.8 4-4 4-4-1.8-4-4zm-2 9h12v2H15zm0 5h12v2H15zm-9 6h15v2H6zm0 5h26v2H6zm0 5h26v2H6zm0 5h8v2H6zm0 5h11v2H6zm15-5h8v2h-8zm0 5h11v2H21z"/></g></svg>